REM DIRINDEX 1\2,1\3
REM DIRNAME cjc116,folder01,folder02
TITLE ""
FILE "Disc2Track10.mp3" MP3
  TRACK 01 AUDIO
    TITLE "0:"
    INDEX 01 00:00:00
  TRACK 02 AUDIO
    TITLE "3:cjc116_2927"
    INDEX 01 00:00:09
  TRACK 03 AUDIO
    TITLE "0:"
    INDEX 01 00:02:08
  TRACK 04 AUDIO
    TITLE "3:cjc116_2928"
    INDEX 01 00:02:59
  TRACK 05 AUDIO
    TITLE "0:"
    INDEX 01 00:04:64
  TRACK 06 AUDIO
    TITLE "2:cjc116_2929"
    INDEX 01 00:05:32
  TRACK 07 AUDIO
    TITLE "0:"
    INDEX 01 00:06:41
  TRACK 08 AUDIO
    TITLE "2:cjc116_2930"
    INDEX 01 00:07:13
  TRACK 09 AUDIO
    TITLE "0:"
    INDEX 01 00:08:64
  TRACK 10 AUDIO
    TITLE "2:cjc116_2931"
    INDEX 01 00:09:26
  TRACK 11 AUDIO
    TITLE "0:"
    INDEX 01 00:11:23
  TRACK 12 AUDIO
    TITLE "2:cjc116_2932"
    INDEX 01 00:11:54
  TRACK 13 AUDIO
    TITLE "0:"
    INDEX 01 00:14:62
  TRACK 14 AUDIO
    TITLE "2:cjc116_2933"
    INDEX 01 00:15:23
  TRACK 15 AUDIO
    TITLE "0:"
    INDEX 01 00:16:48
  TRACK 16 AUDIO
    TITLE "2:cjc116_2934"
    INDEX 01 00:17:12
  TRACK 17 AUDIO
    TITLE "0:"
    INDEX 01 00:18:37
  TRACK 18 AUDIO
    TITLE "2:cjc116_2935"
    INDEX 01 00:19:03
  TRACK 19 AUDIO
    TITLE "0:"
    INDEX 01 00:20:37
  TRACK 20 AUDIO
    TITLE "2:cjc116_2936"
    INDEX 01 00:21:11
  TRACK 21 AUDIO
    TITLE "0:"
    INDEX 01 00:23:22
  TRACK 22 AUDIO
    TITLE "2:cjc116_2937"
    INDEX 01 00:23:57
  TRACK 23 AUDIO
    TITLE "0:"
    INDEX 01 00:25:05
  TRACK 24 AUDIO
    TITLE "2:cjc116_2938"
    INDEX 01 00:25:46
  TRACK 25 AUDIO
    TITLE "0:"
    INDEX 01 00:27:20
  TRACK 26 AUDIO
    TITLE "2:cjc116_2939"
    INDEX 01 00:27:63
  TRACK 27 AUDIO
    TITLE "0:"
    INDEX 01 00:29:33
  TRACK 28 AUDIO
    TITLE "2:cjc116_2940"
    INDEX 01 00:29:72
  TRACK 29 AUDIO
    TITLE "0:"
    INDEX 01 00:31:12
  TRACK 30 AUDIO
    TITLE "2:cjc116_2941"
    INDEX 01 00:31:43
  TRACK 31 AUDIO
    TITLE "0:"
    INDEX 01 00:32:74
  TRACK 32 AUDIO
    TITLE "2:cjc116_2942"
    INDEX 01 00:33:48
  TRACK 33 AUDIO
    TITLE "0:"
    INDEX 01 00:35:00
  TRACK 34 AUDIO
    TITLE "2:cjc116_2943"
    INDEX 01 00:35:39
  TRACK 35 AUDIO
    TITLE "0:"
    INDEX 01 00:36:74
  TRACK 36 AUDIO
    TITLE "2:cjc116_2944"
    INDEX 01 00:37:42
  TRACK 37 AUDIO
    TITLE "0:"
    INDEX 01 00:38:65
  TRACK 38 AUDIO
    TITLE "2:cjc116_2945"
    INDEX 01 00:39:23
  TRACK 39 AUDIO
    TITLE "0:"
    INDEX 01 00:40:72
  TRACK 40 AUDIO
    TITLE "2:cjc116_2946"
    INDEX 01 00:41:40
  TRACK 41 AUDIO
    TITLE "0:"
    INDEX 01 00:43:39
  TRACK 42 AUDIO
    TITLE "2:cjc116_2947"
    INDEX 01 00:44:03
  TRACK 43 AUDIO
    TITLE "0:"
    INDEX 01 00:45:45
  TRACK 44 AUDIO
    TITLE "2:cjc116_2948"
    INDEX 01 00:46:13
  TRACK 45 AUDIO
    TITLE "0:"
    INDEX 01 00:48:08
  TRACK 46 AUDIO
    TITLE "2:cjc116_2949"
    INDEX 01 00:48:46
  TRACK 47 AUDIO
    TITLE "0:"
    INDEX 01 00:49:51
  TRACK 48 AUDIO
    TITLE "2:cjc116_2950"
    INDEX 01 00:50:19
  TRACK 49 AUDIO
    TITLE "0:"
    INDEX 01 00:51:36
  TRACK 50 AUDIO
    TITLE "2:cjc116_2951"
    INDEX 01 00:51:73
  TRACK 51 AUDIO
    TITLE "0:"
    INDEX 01 00:53:41
  TRACK 52 AUDIO
    TITLE "2:cjc116_2952"
    INDEX 01 00:54:11
  TRACK 53 AUDIO
    TITLE "0:"
    INDEX 01 00:55:73
  TRACK 54 AUDIO
    TITLE "2:cjc116_2953"
    INDEX 01 00:56:39
  TRACK 55 AUDIO
    TITLE "0:"
    INDEX 01 00:58:13
  TRACK 56 AUDIO
    TITLE "2:cjc116_2954"
    INDEX 01 00:58:58
  TRACK 57 AUDIO
    TITLE "0:"
    INDEX 01 01:00:21
  TRACK 58 AUDIO
    TITLE "2:cjc116_2955"
    INDEX 01 01:00:59
  TRACK 59 AUDIO
    TITLE "0:"
    INDEX 01 01:02:30
  TRACK 60 AUDIO
    TITLE "2:cjc116_2956"
    INDEX 01 01:03:04
  TRACK 61 AUDIO
    TITLE "0:"
    INDEX 01 01:04:35
  TRACK 62 AUDIO
    TITLE "2:cjc116_2957"
    INDEX 01 01:04:74
  TRACK 63 AUDIO
    TITLE "0:"
    INDEX 01 01:06:26
  TRACK 64 AUDIO
    TITLE "2:cjc116_2958"
    INDEX 01 01:06:63
  TRACK 65 AUDIO
    TITLE "0:"
    INDEX 01 01:08:56
  TRACK 66 AUDIO
    TITLE "2:cjc116_2959"
    INDEX 01 01:09:16
  TRACK 67 AUDIO
    TITLE "0:"
    INDEX 01 01:10:22
  TRACK 68 AUDIO
    TITLE "2:cjc116_2960"
    INDEX 01 01:10:65
  TRACK 69 AUDIO
    TITLE "0:"
    INDEX 01 01:12:32
  TRACK 70 AUDIO
    TITLE "2:cjc116_2961"
    INDEX 01 01:12:71
  TRACK 71 AUDIO
    TITLE "0:"
    INDEX 01 01:14:21
  TRACK 72 AUDIO
    TITLE "2:cjc116_2962"
    INDEX 01 01:14:63
  TRACK 73 AUDIO
    TITLE "0:"
    INDEX 01 01:16:14
  TRACK 74 AUDIO
    TITLE "2:cjc116_2963"
    INDEX 01 01:16:50
  TRACK 75 AUDIO
    TITLE "0:"
    INDEX 01 01:17:65
  TRACK 76 AUDIO
    TITLE "2:cjc116_2964"
    INDEX 01 01:18:29
  TRACK 77 AUDIO
    TITLE "0:"
    INDEX 01 01:19:34
  TRACK 78 AUDIO
    TITLE "2:cjc116_2965"
    INDEX 01 01:19:74
  TRACK 79 AUDIO
    TITLE "0:"
    INDEX 01 01:21:27
  TRACK 80 AUDIO
    TITLE "2:cjc116_2966"
    INDEX 01 01:21:65
  TRACK 81 AUDIO
    TITLE "0:"
    INDEX 01 01:24:26
  TRACK 82 AUDIO
    TITLE "2:cjc116_2967"
    INDEX 01 01:24:55
  TRACK 83 AUDIO
    TITLE "0:"
    INDEX 01 01:25:66
  TRACK 84 AUDIO
    TITLE "2:cjc116_2968"
    INDEX 01 01:26:29
  TRACK 85 AUDIO
    TITLE "0:"
    INDEX 01 01:27:55
  TRACK 86 AUDIO
    TITLE "2:cjc116_2969"
    INDEX 01 01:28:12
  TRACK 87 AUDIO
    TITLE "0:"
    INDEX 01 01:29:09
  TRACK 88 AUDIO
    TITLE "2:cjc116_2970"
    INDEX 01 01:29:48
  TRACK 89 AUDIO
    TITLE "0:"
    INDEX 01 01:31:12
  TRACK 90 AUDIO
    TITLE "2:cjc116_2971"
    INDEX 01 01:31:49
  TRACK 91 AUDIO
    TITLE "0:"
    INDEX 01 01:32:72
  TRACK 92 AUDIO
    TITLE "2:cjc116_2972"
    INDEX 01 01:33:40
  TRACK 93 AUDIO
    TITLE "0:"
    INDEX 01 01:34:73
  TRACK 94 AUDIO
    TITLE "2:cjc116_2973"
    INDEX 01 01:35:37
  TRACK 95 AUDIO
    TITLE "0:"
    INDEX 01 01:36:41
  TRACK 96 AUDIO
    TITLE "2:cjc116_2974"
    INDEX 01 01:37:05
  TRACK 97 AUDIO
    TITLE "0:"
    INDEX 01 01:39:57
  TRACK 98 AUDIO
    TITLE "2:cjc116_2975"
    INDEX 01 01:40:19
  TRACK 99 AUDIO
    TITLE "0:"
    INDEX 01 01:41:61
  TRACK 100 AUDIO
    TITLE "2:cjc116_2976"
    INDEX 01 01:42:31
  TRACK 101 AUDIO
    TITLE "0:"
    INDEX 01 01:44:32
  TRACK 102 AUDIO
    TITLE "2:cjc116_2977"
    INDEX 01 01:44:72
  TRACK 103 AUDIO
    TITLE "0:"
    INDEX 01 01:46:31
  TRACK 104 AUDIO
    TITLE "2:cjc116_2978"
    INDEX 01 01:46:74
  TRACK 105 AUDIO
    TITLE "0:"
    INDEX 01 01:48:24
  TRACK 106 AUDIO
    TITLE "2:cjc116_2979"
    INDEX 01 01:48:58
  TRACK 107 AUDIO
    TITLE "0:"
    INDEX 01 01:50:33
  TRACK 108 AUDIO
    TITLE "2:cjc116_2980"
    INDEX 01 01:50:74
  TRACK 109 AUDIO
    TITLE "0:"
    INDEX 01 01:52:28
  TRACK 110 AUDIO
    TITLE "2:cjc116_2981"
    INDEX 01 01:52:57
  TRACK 111 AUDIO
    TITLE "0:"
    INDEX 01 01:55:13
  TRACK 112 AUDIO
    TITLE "2:cjc116_2982"
    INDEX 01 01:55:48
  TRACK 113 AUDIO
    TITLE "0:"
    INDEX 01 01:57:15
  TRACK 114 AUDIO
    TITLE "2:cjc116_2983"
    INDEX 01 01:57:53
  TRACK 115 AUDIO
    TITLE "0:"
    INDEX 01 01:58:66
  TRACK 116 AUDIO
    TITLE "2:cjc116_2984"
    INDEX 01 01:59:32
  TRACK 117 AUDIO
    TITLE "0:"
    INDEX 01 02:01:29
  TRACK 118 AUDIO
    TITLE "2:cjc116_2985"
    INDEX 01 02:01:66
  TRACK 119 AUDIO
    TITLE "0:"
    INDEX 01 02:03:16
  TRACK 120 AUDIO
    TITLE "2:cjc116_2986"
    INDEX 01 02:03:55
  TRACK 121 AUDIO
    TITLE "0:"
    INDEX 01 02:05:15
  TRACK 122 AUDIO
    TITLE "2:cjc116_2987"
    INDEX 01 02:05:54
  TRACK 123 AUDIO
    TITLE "0:"
    INDEX 01 02:07:31
  TRACK 124 AUDIO
    TITLE "2:cjc116_2988"
    INDEX 01 02:08:00
  TRACK 125 AUDIO
    TITLE "0:"
    INDEX 01 02:09:38
  TRACK 126 AUDIO
    TITLE "2:cjc116_2989"
    INDEX 01 02:10:00
  TRACK 127 AUDIO
    TITLE "0:"
    INDEX 01 02:11:12
  TRACK 128 AUDIO
    TITLE "2:cjc116_2990"
    INDEX 01 02:11:55
  TRACK 129 AUDIO
    TITLE "0:"
    INDEX 01 02:13:16
  TRACK 130 AUDIO
    TITLE "2:cjc116_2991"
    INDEX 01 02:13:59
  TRACK 131 AUDIO
    TITLE "0:"
    INDEX 01 02:15:00
  TRACK 132 AUDIO
    TITLE "2:cjc116_2992"
    INDEX 01 02:15:43
  TRACK 133 AUDIO
    TITLE "0:"
    INDEX 01 02:17:20
  TRACK 134 AUDIO
    TITLE "2:cjc116_2993"
    INDEX 01 02:17:59
  TRACK 135 AUDIO
    TITLE "0:"
    INDEX 01 02:19:11
  TRACK 136 AUDIO
    TITLE "2:cjc116_2994"
    INDEX 01 02:19:54
  TRACK 137 AUDIO
    TITLE "0:"
    INDEX 01 02:21:20
  TRACK 138 AUDIO
    TITLE "2:cjc116_2995"
    INDEX 01 02:21:61
  TRACK 139 AUDIO
    TITLE "0:"
    INDEX 01 02:23:34
  TRACK 140 AUDIO
    TITLE "2:cjc116_2996"
    INDEX 01 02:24:00
  TRACK 141 AUDIO
    TITLE "0:"
    INDEX 01 02:25:06
  TRACK 142 AUDIO
    TITLE "2:cjc116_2997"
    INDEX 01 02:25:45
  TRACK 143 AUDIO
    TITLE "0:"
    INDEX 01 02:27:22
  TRACK 144 AUDIO
    TITLE "2:cjc116_2998"
    INDEX 01 02:27:67
  TRACK 145 AUDIO
    TITLE "0:"
    INDEX 01 02:29:15
  TRACK 146 AUDIO
    TITLE "2:cjc116_2999"
    INDEX 01 02:29:55
  TRACK 147 AUDIO
    TITLE "0:"
    INDEX 01 02:31:06
  TRACK 148 AUDIO
    TITLE "2:cjc116_3000"
    INDEX 01 02:31:51
  TRACK 149 AUDIO
    TITLE "0:"
    INDEX 01 02:33:01
  TRACK 150 AUDIO
    TITLE "2:cjc116_3001"
    INDEX 01 02:33:31
  TRACK 151 AUDIO
    TITLE "0:"
    INDEX 01 02:35:28
  TRACK 152 AUDIO
    TITLE "2:cjc116_3002"
    INDEX 01 02:35:73
  TRACK 153 AUDIO
    TITLE "0:"
    INDEX 01 02:37:56
  TRACK 154 AUDIO
    TITLE "3:cjc116_3003"
    INDEX 01 02:39:31
  TRACK 155 AUDIO
    TITLE "0:"
    INDEX 01 02:40:45
  TRACK 156 AUDIO
    TITLE "2:cjc116_3004"
    INDEX 01 02:41:11
  TRACK 157 AUDIO
    TITLE "0:"
    INDEX 01 02:42:43
  TRACK 158 AUDIO
    TITLE "2:cjc116_3005"
    INDEX 01 02:43:10
  TRACK 159 AUDIO
    TITLE "0:"
    INDEX 01 02:44:38
  TRACK 160 AUDIO
    TITLE "2:cjc116_3006"
    INDEX 01 02:45:03
  TRACK 161 AUDIO
    TITLE "0:"
    INDEX 01 02:46:24
  TRACK 162 AUDIO
    TITLE "2:cjc116_3007"
    INDEX 01 02:46:73
  TRACK 163 AUDIO
    TITLE "0:"
    INDEX 01 02:48:23
  TRACK 164 AUDIO
    TITLE "2:cjc116_3008"
    INDEX 01 02:48:48
  TRACK 165 AUDIO
    TITLE "0:"
    INDEX 01 02:50:10
  TRACK 166 AUDIO
    TITLE "2:cjc116_3009"
    INDEX 01 02:50:57
  TRACK 167 AUDIO
    TITLE "0:"
    INDEX 01 02:52:30
  TRACK 168 AUDIO
    TITLE "2:cjc116_3010"
    INDEX 01 02:52:67
  TRACK 169 AUDIO
    TITLE "0:"
    INDEX 01 02:54:39
  TRACK 170 AUDIO
    TITLE "2:cjc116_3011"
    INDEX 01 02:55:17
  TRACK 171 AUDIO
    TITLE "0:"
    INDEX 01 02:56:71
  TRACK 172 AUDIO
    TITLE "2:cjc116_3012"
    INDEX 01 02:57:31
  TRACK 173 AUDIO
    TITLE "0:"
    INDEX 01 02:58:62
  TRACK 174 AUDIO
    TITLE "2:cjc116_3013"
    INDEX 01 02:59:28
  TRACK 175 AUDIO
    TITLE "0:"
    INDEX 01 03:01:06
  TRACK 176 AUDIO
    TITLE "2:cjc116_3014"
    INDEX 01 03:01:43
  TRACK 177 AUDIO
    TITLE "0:"
    INDEX 01 03:02:48
  TRACK 178 AUDIO
    TITLE "2:cjc116_3015"
    INDEX 01 03:03:12
  TRACK 179 AUDIO
    TITLE "0:"
    INDEX 01 03:04:27
  TRACK 180 AUDIO
    TITLE "2:cjc116_3016"
    INDEX 01 03:04:69
  TRACK 181 AUDIO
    TITLE "0:"
    INDEX 01 03:06:03
  TRACK 182 AUDIO
    TITLE "2:cjc116_3017"
    INDEX 01 03:06:58
  TRACK 183 AUDIO
    TITLE "0:"
    INDEX 01 03:08:15
  TRACK 184 AUDIO
    TITLE "2:cjc116_3018"
    INDEX 01 03:08:59
  TRACK 185 AUDIO
    TITLE "0:"
    INDEX 01 03:10:30
  TRACK 186 AUDIO
    TITLE "2:cjc116_3019"
    INDEX 01 03:10:59
  TRACK 187 AUDIO
    TITLE "0:"
    INDEX 01 03:12:21
  TRACK 188 AUDIO
    TITLE "3:cjc116_3020"
    INDEX 01 03:13:69
  TRACK 189 AUDIO
    TITLE "0:"
    INDEX 01 03:15:49
  TRACK 190 AUDIO
    TITLE "2:cjc116_3021"
    INDEX 01 03:16:19
  TRACK 191 AUDIO
    TITLE "0:"
    INDEX 01 03:17:73
  TRACK 192 AUDIO
    TITLE "2:cjc116_3022"
    INDEX 01 03:18:39
  TRACK 193 AUDIO
    TITLE "0:"
    INDEX 01 03:19:64
  TRACK 194 AUDIO
    TITLE "2:cjc116_3023"
    INDEX 01 03:20:26
  TRACK 195 AUDIO
    TITLE "0:"
    INDEX 01 03:22:04
  TRACK 196 AUDIO
    TITLE "2:cjc116_3024"
    INDEX 01 03:22:45
  TRACK 197 AUDIO
    TITLE "0:"
    INDEX 01 03:24:14
  TRACK 198 AUDIO
    TITLE "2:cjc116_3025"
    INDEX 01 03:24:52
  TRACK 199 AUDIO
    TITLE "0:"
    INDEX 01 03:26:21
  TRACK 200 AUDIO
    TITLE "2:cjc116_3026"
    INDEX 01 03:26:62
  TRACK 201 AUDIO
    TITLE "0:"
    INDEX 01 03:28:32
  TRACK 202 AUDIO
    TITLE "2:cjc116_3027"
    INDEX 01 03:28:69
  TRACK 203 AUDIO
    TITLE "0:"
    INDEX 01 03:29:70
  TRACK 204 AUDIO
    TITLE "2:cjc116_3028"
    INDEX 01 03:30:35
  TRACK 205 AUDIO
    TITLE "0:"
    INDEX 01 03:31:52
  TRACK 206 AUDIO
    TITLE "2:cjc116_3029"
    INDEX 01 03:32:18
  TRACK 207 AUDIO
    TITLE "0:"
    INDEX 01 03:33:45
  TRACK 208 AUDIO
    TITLE "2:cjc116_3030"
    INDEX 01 03:34:13
  TRACK 209 AUDIO
    TITLE "0:"
    INDEX 01 03:35:22
  TRACK 210 AUDIO
    TITLE "2:cjc116_3031"
    INDEX 01 03:35:57
  TRACK 211 AUDIO
    TITLE "0:"
    INDEX 01 03:37:31
  TRACK 212 AUDIO
    TITLE "2:cjc116_3032"
    INDEX 01 03:37:72
  TRACK 213 AUDIO
    TITLE "0:"
    INDEX 01 03:39:51
  TRACK 214 AUDIO
    TITLE "2:cjc116_3033"
    INDEX 01 03:40:21
  TRACK 215 AUDIO
    TITLE "0:"
    INDEX 01 03:41:60
  TRACK 216 AUDIO
    TITLE "2:cjc116_3034"
    INDEX 01 03:42:22
  TRACK 217 AUDIO
    TITLE "0:"
    INDEX 01 03:43:39
  TRACK 218 AUDIO
    TITLE "2:cjc116_3035"
    INDEX 01 03:44:03
  TRACK 219 AUDIO
    TITLE "0:"
    INDEX 01 03:45:09
  TRACK 220 AUDIO
    TITLE "2:cjc116_3036"
    INDEX 01 03:45:56
  TRACK 221 AUDIO
    TITLE "0:"
    INDEX 01 03:47:06
  TRACK 222 AUDIO
    TITLE "2:cjc116_3037"
    INDEX 01 03:47:49
  TRACK 223 AUDIO
    TITLE "0:"
    INDEX 01 03:49:01
  TRACK 224 AUDIO
    TITLE "2:cjc116_3038"
    INDEX 01 03:49:52
  TRACK 225 AUDIO
    TITLE "0:"
    INDEX 01 03:51:07
  TRACK 226 AUDIO
    TITLE "2:cjc116_3039"
    INDEX 01 03:51:45
  TRACK 227 AUDIO
    TITLE "0:"
    INDEX 01 03:53:30
  TRACK 228 AUDIO
    TITLE "2:cjc116_3040"
    INDEX 01 03:53:71
  TRACK 229 AUDIO
    TITLE "0:"
    INDEX 01 03:56:12
  TRACK 230 AUDIO
    TITLE "2:cjc116_3041"
    INDEX 01 03:56:54
  TRACK 231 AUDIO
    TITLE "0:"
    INDEX 01 03:58:09
  TRACK 232 AUDIO
    TITLE "2:cjc116_3042"
    INDEX 01 03:58:62
  TRACK 233 AUDIO
    TITLE "0:"
    INDEX 01 04:00:40
  TRACK 234 AUDIO
    TITLE "2:cjc116_3043"
    INDEX 01 04:01:06
  TRACK 235 AUDIO
    TITLE "0:"
    INDEX 01 04:02:37
  TRACK 236 AUDIO
    TITLE "2:cjc116_3044"
    INDEX 01 04:03:07
  TRACK 237 AUDIO
    TITLE "0:"
    INDEX 01 04:04:67
  TRACK 238 AUDIO
    TITLE "2:cjc116_3045"
    INDEX 01 04:05:31
  TRACK 239 AUDIO
    TITLE "0:"
    INDEX 01 04:07:03
  TRACK 240 AUDIO
    TITLE "2:cjc116_3046"
    INDEX 01 04:07:44
  TRACK 241 AUDIO
    TITLE "0:"
    INDEX 01 04:08:37
  TRACK 242 AUDIO
    TITLE "2:cjc116_3047"
    INDEX 01 04:08:69
  TRACK 243 AUDIO
    TITLE "0:"
    INDEX 01 04:10:30
  TRACK 244 AUDIO
    TITLE "2:cjc116_3048"
    INDEX 01 04:10:73
  TRACK 245 AUDIO
    TITLE "0:"
    INDEX 01 04:13:03
  TRACK 246 AUDIO
    TITLE "2:cjc116_3049"
    INDEX 01 04:13:40
  TRACK 247 AUDIO
    TITLE "0:"
    INDEX 01 04:15:04
  TRACK 248 AUDIO
    TITLE "2:cjc116_3050"
    INDEX 01 04:15:47
  TRACK 249 AUDIO
    TITLE "0:"
    INDEX 01 04:17:68
  TRACK 250 AUDIO
    TITLE "2:cjc116_3051"
    INDEX 01 04:18:30
  TRACK 251 AUDIO
    TITLE "0:"
    INDEX 01 04:19:49
  TRACK 252 AUDIO
    TITLE "2:cjc116_3052"
    INDEX 01 04:20:17
  TRACK 253 AUDIO
    TITLE "0:"
    INDEX 01 04:21:34
  TRACK 254 AUDIO
    TITLE "2:cjc116_3053"
    INDEX 01 04:21:71
  TRACK 255 AUDIO
    TITLE "0:"
    INDEX 01 04:23:23
  TRACK 256 AUDIO
    TITLE "2:cjc116_3054"
    INDEX 01 04:23:52
  TRACK 257 AUDIO
    TITLE "0:"
    INDEX 01 04:25:08
  TRACK 258 AUDIO
    TITLE "2:cjc116_3055"
    INDEX 01 04:25:47
  TRACK 259 AUDIO
    TITLE "0:"
    INDEX 01 04:27:44
  TRACK 260 AUDIO
    TITLE "2:cjc116_3056"
    INDEX 01 04:28:11
  TRACK 261 AUDIO
    TITLE "0:"
    INDEX 01 04:29:30
  TRACK 262 AUDIO
    TITLE "2:cjc116_3057"
    INDEX 01 04:29:67
  TRACK 263 AUDIO
    TITLE "0:"
    INDEX 01 04:31:42
  TRACK 264 AUDIO
    TITLE "2:cjc116_3058"
    INDEX 01 04:32:04
  TRACK 265 AUDIO
    TITLE "0:"
    INDEX 01 04:33:63
  TRACK 266 AUDIO
    TITLE "2:cjc116_3059"
    INDEX 01 04:34:27
  TRACK 267 AUDIO
    TITLE "0:"
    INDEX 01 04:36:26
  TRACK 268 AUDIO
    TITLE "2:cjc116_3060"
    INDEX 01 04:36:67
  TRACK 269 AUDIO
    TITLE "0:"
    INDEX 01 04:38:05
  TRACK 270 AUDIO
    TITLE "2:cjc116_3061"
    INDEX 01 04:38:40
  TRACK 271 AUDIO
    TITLE "0:"
    INDEX 01 04:39:53
  TRACK 272 AUDIO
    TITLE "2:cjc116_3062"
    INDEX 01 04:40:16
  TRACK 273 AUDIO
    TITLE "0:"
    INDEX 01 04:41:46
  TRACK 274 AUDIO
    TITLE "2:cjc116_3063"
    INDEX 01 04:42:11
  TRACK 275 AUDIO
    TITLE "0:"
    INDEX 01 04:43:34
  TRACK 276 AUDIO
    TITLE "2:cjc116_3064"
    INDEX 01 04:44:02
  TRACK 277 AUDIO
    TITLE "0:"
    INDEX 01 04:45:44
  TRACK 278 AUDIO
    TITLE "2:cjc116_3065"
    INDEX 01 04:46:14
  TRACK 279 AUDIO
    TITLE "0:"
    INDEX 01 04:47:31
  TRACK 280 AUDIO
    TITLE "2:cjc116_3066"
    INDEX 01 04:48:00
  TRACK 281 AUDIO
    TITLE "0:"
    INDEX 01 04:50:10
  TRACK 282 AUDIO
    TITLE "2:cjc116_3067"
    INDEX 01 04:50:45
  TRACK 283 AUDIO
    TITLE "0:"
    INDEX 01 04:52:05
  TRACK 284 AUDIO
    TITLE "2:cjc116_3068"
    INDEX 01 04:52:50
  TRACK 285 AUDIO
    TITLE "0:"
    INDEX 01 04:53:73
  TRACK 286 AUDIO
    TITLE "2:cjc116_3069"
    INDEX 01 04:54:35
  TRACK 287 AUDIO
    TITLE "0:"
    INDEX 01 04:56:03
  TRACK 288 AUDIO
    TITLE "2:cjc116_3070"
    INDEX 01 04:56:40
  TRACK 289 AUDIO
    TITLE "0:"
    INDEX 01 04:58:47
  TRACK 290 AUDIO
    TITLE "2:cjc116_3071"
    INDEX 01 04:59:01
  TRACK 291 AUDIO
    TITLE "0:"
    INDEX 01 05:00:14
  TRACK 292 AUDIO
    TITLE "2:cjc116_3072"
    INDEX 01 05:00:60
  TRACK 293 AUDIO
    TITLE "0:"
    INDEX 01 05:02:04
  TRACK 294 AUDIO
    TITLE "2:cjc116_3073"
    INDEX 01 05:02:43
  TRACK 295 AUDIO
    TITLE "0:"
    INDEX 01 05:03:62
  TRACK 296 AUDIO
    TITLE "2:cjc116_3074"
    INDEX 01 05:04:28
  TRACK 297 AUDIO
    TITLE "0:"
    INDEX 01 05:06:09
  TRACK 298 AUDIO
    TITLE "2:cjc116_3075"
    INDEX 01 05:06:46
  TRACK 299 AUDIO
    TITLE "0:"
    INDEX 01 05:07:73
  TRACK 300 AUDIO
    TITLE "2:cjc116_3076"
    INDEX 01 05:08:41
  TRACK 301 AUDIO
    TITLE "0:"
    INDEX 01 05:10:23
  TRACK 302 AUDIO
    TITLE "2:cjc116_3077"
    INDEX 01 05:10:60
  TRACK 303 AUDIO
    TITLE "0:"
    INDEX 01 05:12:41
  TRACK 304 AUDIO
    TITLE "2:cjc116_3078"
    INDEX 01 05:13:19
  TRACK 305 AUDIO
    TITLE "0:"
    INDEX 01 05:14:69
